<svg xmlns="http://www.w3.org/2000/svg" width="247" height="48" version="1.2"><style>.a{fill:#fff}</style><path d="M29.8 2.3q-.5 1.3-1.4 3.8-.8 2.4-1.5 6.3h-1q.1-.7.1-1.4.2-.8.1-1.4 0-1.8-.7-3.3-.7-1.6-2.3-2.5-1.5-.9-4.1-1-3 .1-5 1.6-1.9 1.5-2 4.8 0 1.9.9 3.6 1 1.6 2.4 3.1 1.4 1.4 3.1 2.9 1.6 1.5 3 3 1.5 1.5 2.3 3.3 1 1.7 1 3.8 0 2.6-1.2 4.5-1.1 1.8-3 3-1.8 1.1-4.1 1.7-2.2.6-4.4.6-1.9 0-3.3-.4-1.4-.3-2.3-.9l-1.5-1q-.5-.4-1-.6t-.8-.2q-.6 0-1.1.8-.4.6-.9 2h-1q.5-1.1.9-2.6.5-1.5 1.1-3.7.6-2.3 1.4-5.7h1l-.4 2q-.1.9-.1 2 .2 3.4 2.1 5.4 2 1.9 6.1 1.9 3.2 0 5.3-1.5t2-4.7q.1-2.2-.8-3.8-.8-1.7-2.2-3.1-1.3-1.4-2.8-2.7l-2.8-2.8q-1.3-1.5-2.1-3.3-.8-1.9-.8-4.2t.9-4.1q1-1.9 2.5-3.1 1.7-1.2 3.6-1.8 1.9-.7 4-.7t3.6.5T25.5 4q.6.4 1 .7.4.2.6.2.8 0 1.7-2.6zm3.1 24.3q2.8-.9 5-1.8 2.3-.9 3.7-2 1.8-1.5 2.8-3.5 1.1-2.1 1.1-4.5 0-1.5-.2-1.9t-.6-.3q-1.3 0-2.7 1-1.5 1.1-2.9 3.1-1.4 1.9-2.6 4.3-1.1 2.5-1.8 5.3t-.7 5.5q0 2.5.9 3.7 1 1.1 2.5 1.1 1.8 0 3.8-1.1t3.9-3.9l.8.4q-.9 1.7-2.5 3.2-1.5 1.5-3.5 2.5-1.9 1-4 1-2 0-3.5-.8t-2.3-2.4-.8-3.9q0-2.1.8-4.7.8-2.7 2.2-5.4 1.5-2.7 3.6-4.9 2-2.3 4.5-3.7 2.5-1.3 5.4-1.3 1.5 0 2.6.8t1.1 2.5q0 2-1.2 3.7t-3.1 3.2q-1.9 1.4-4.2 2.5-2.2 1.1-4.4 1.9-2.1.8-3.8 1.3zM59.6 3.2q.3-1.4 1.3-2.3Q62 0 63.3 0t2 .9.5 2.2q-.3 1.4-1.4 2.3-1 .9-2.3.9t-2-.9-.5-2.3zm-1.5 13.4q1-3.1-.7-3.1-1.2 0-2.1 1.2-.9 1.3-1.9 3.9l-.7 1.8h-.9l1.3-3.6q.7-2.1 1.8-3.2 1-1.1 2.2-1.5t2.2-.4q1.6 0 2.3.6.8.6.9 1.7.2 1.1-.1 2.3-.2 1.2-.6 2.4l-5.4 15.1q-.5 1.5-.3 2.3t1.1.8q1 0 1.9-1.1t2-4l.7-1.9h1l-1.3 3.7q-.7 1.9-1.7 3.1-1 1.1-2.2 1.6-1.1.4-2.3.5-2.1 0-2.9-1-.7-1-.5-2.6.2-1.7.8-3.4zM68.5 45q2.2-1.1 4.6-3.1t5-5.3q3-3.7 5.4-8.4t3.4-9.4q-.8-.5-1.8-1.1-.9-.8-1.5-1.6-.6-1-.5-2.1.1-1.2.8-1.8t1.7-.6q1.4 0 2 1.1.6 1 .6 3 0 2.5-.8 5.5-.9 2.8-2.3 5.9-1.4 2.9-3.2 5.8-1.7 2.7-3.5 5-.8 1-2.2 2.5t-3.4 3q-1.9 1.6-4.3 2.8-1.5.7-2.6.9-1 .3-1.7.3-1 0-1.8-.5-.7-.5-.7-1.5 0-1.1.8-1.7t1.9-.6 2.1.6q1.1.6 2 1.4zm11-9.1-3.4 3.7-3.8-23q-.2-1.6-.6-2.2-.3-.6-1-.6-.5 0-1.2.9t-1.7 3.7l-.7 1.9h-.9l1.2-3.7q1.1-3 2.6-4 1.6-1.1 3.2-1.1 1.5 0 2.4 1 .8.9 1.2 3.6zM96 37q1.2 0 2.7-1.5 1.6-1.5 3.2-4.1t2.9-5.9q1.4-3.3 2.2-6.9l-.9 5.4q-1.9 5.3-3.8 8.6-1.9 3.1-3.8 4.6-2 1.4-4 1.4-2.3 0-3.5-1.7t-1.2-4.3q0-2.4.8-5.2.8-2.9 2.2-5.7 1.5-2.8 3.3-5.1 1.9-2.3 4-3.7 2.2-1.4 4.5-1.4 1.7 0 2.6 1.8 1 1.6.4 4.8l-.5.3q.3-2.7-.4-4.3t-2.3-1.6q-1.3-.1-2.7 1.3-1.4 1.2-2.8 3.4-1.3 2.1-2.4 4.9-1 2.7-1.7 5.6-.6 2.8-.6 5.5 0 2.1.5 3 .5.8 1.3.8m12.6-24.8q1.2 0 2.4-.2t2.2-.5l-6.3 22.1-.3 1.2q-.1.7 0 1.3.2.6 1.1.6 1 0 1.9-1.1 1-1.1 1.9-4l.6-1.8h1l-1.3 3.6q-.7 2-1.7 3.2-.9 1-2 1.5-1 .5-2 .5-2 0-2.8-1.3-.6-1.2-.3-2.6.3-1.6.7-3.1zM118 38v-4.2h4.7V7H118V2.8h14.7V7H128v26.8h4.7V38zm18.9 0V11.6h4.7v4.5q1-2.1 3.1-3.6t5-1.5q2.7 0 4.6 1.4 1.9 1.5 2.9 4.1 1.3-2.5 3.5-4 2.1-1.5 4.9-1.5 3.9 0 6.1 2.8 2.1 2.8 2.1 7.7V38h-4.9V21.7q0-2-.4-3.5t-1.4-2.3q-1-.9-2.7-.9-1.9 0-3.4 1.1-1.5 1.2-2.3 3.3t-.8 5V38h-5V21.7q0-2-.4-3.5-.5-1.5-1.4-2.3-1-.9-2.7-.9-1.9 0-3.4 1.1t-2.3 3.2q-.9 2.1-.9 5.1V38zm53.9.6q-3.8 0-6.7-1.7-2.9-1.8-4.5-4.9t-1.6-7.2 1.6-7.2 4.5-4.8q2.9-1.8 6.7-1.8t6.7 1.8q2.9 1.7 4.5 4.8t1.6 7.2T202 32t-4.5 4.9q-2.9 1.7-6.7 1.7m0-3.9q3.5 0 5.5-2.7 2-2.6 2-7.2 0-4.5-2-7.2-2-2.6-5.5-2.6t-5.5 2.6q-2 2.7-2 7.2 0 4.6 2 7.2 2 2.7 5.5 2.7m22.9 3.3q-1.9 0-3.2-1.1-1.3-1.2-1.3-3.1V15.6h-4.1v-4h4.1V6.2l5-1.1v6.5h5.1v4h-5.1v17.1q0 .8.2 1.1.3.3 1 .3h4V38zm20.1.6q-3.8 0-6.7-1.7-2.8-1.8-4.5-4.9-1.6-3.1-1.6-7.2t1.6-7.2q1.7-3.1 4.5-4.8 2.9-1.8 6.7-1.8t6.7 1.8q2.9 1.7 4.5 4.8t1.6 7.2T245 32t-4.5 4.9q-2.9 1.7-6.7 1.7m0-3.9q3.5 0 5.5-2.7 2-2.6 2-7.2 0-4.5-2-7.2-2-2.6-5.5-2.6-3.4 0-5.4 2.6-2.1 2.7-2.1 7.2 0 4.6 2.1 7.2 2 2.7 5.4 2.7" class="a"/></svg>