<svg xmlns="http://www.w3.org/2000/svg" width="616" height="115" version="1.2"><defs><clipPath id="cp1" clipPathUnits="userSpaceOnUse"><path d="M0-38h962.58v161H0z"/></clipPath></defs><style>.a{fill:#fff}</style><g clip-path="url(#cp1)"><path d="M72.1 6.2q-1.2 3.1-3.2 9.1Q67 21.2 65 30.7h-2.4q.4-1.7.5-3.5.3-1.8.3-3.4 0-4.4-1.8-8-1.7-3.7-5.4-5.9-3.8-2.3-9.9-2.3-7.2 0-12 3.8-4.8 3.7-4.8 11.5 0 4.5 2.2 8.5 2.3 3.8 5.6 7.4 3.5 3.5 7.3 7.1 4 3.5 7.4 7.2t5.6 7.9q2.3 4.1 2.3 9.2 0 6.2-2.8 10.6-2.7 4.5-7.2 7.4-4.4 2.7-9.8 4-5.3 1.5-10.6 1.5-4.8 0-8-1-3.3-.8-5.4-2.1-2.2-1.4-3.6-2.4-1.3-1.1-2.5-1.5-1.1-.3-1.8-.3-1.6 0-2.7 1.6-.9 1.6-2.3 4.8H.8q1.1-2.6 2.3-6.1t2.7-8.9Q7.2 72.3 9 64h2.4q-.5 2.6-.8 5-.4 2.2-.3 4.8.4 8.1 5.1 12.8 4.6 4.7 14.5 4.7 7.8 0 12.7-3.6t4.9-11.4q0-5.1-2-9-1.9-4-5.2-7.3-3.1-3.5-6.7-6.8-3.5-3.2-6.7-6.7-3.1-3.6-5.2-7.9-1.9-4.3-1.9-9.8 0-5.8 2.3-10.1 2.3-4.5 6-7.3 3.8-3 8.5-4.5t9.6-1.5q5 0 8.6 1.2t7 3.8q1.4 1.1 2.4 1.7 1 .5 1.6.5 1.6 0 3.9-6.4zm7.4 58.6q6.7-2.3 12.1-4.5 5.6-2.3 8.8-4.8 4.3-3.5 6.8-8.4 2.6-4.9 2.6-10.8 0-3.5-.5-4.4-.5-1-1.5-1-3 0-6.4 2.7-3.5 2.6-6.9 7.3-3.3 4.5-6.2 10.4-2.8 5.9-4.5 12.6-1.6 6.6-1.6 13.2 0 6.1 2.2 8.9 2.3 2.6 6 2.6 4.4 0 9.2-2.6t9.3-9.4l1.9 1q-2.2 4-6 7.7-3.7 3.7-8.4 6.1-4.5 2.3-9.7 2.3-4.8 0-8.4-1.9-3.6-2-5.5-5.7-1.9-3.8-1.9-9.3 0-5.2 1.9-11.6t5.4-12.8q3.6-6.5 8.5-11.9t10.9-8.6q6-3.3 12.9-3.3 3.7 0 6.2 2.1 2.7 1.9 2.7 5.9 0 4.8-2.9 9-2.8 4-7.5 7.5-4.5 3.4-9.9 6-5.4 2.7-10.6 4.6-5.1 1.9-9.1 3.1zm64.1-56.3q.6-3.1 3.1-5.4 2.6-2.3 5.6-2.3 3.1 0 4.8 2.3 1.8 2.3 1.2 5.4t-3.2 5.4q-2.5 2.3-5.7 2.3-3 0-4.8-2.3-1.6-2.3-1-5.4m-3.8 32.1q2.6-7.5-1.6-7.5-2.8 0-5 3-2.1 3-4.5 9.3l-1.7 4.4h-2.3l3.1-8.8q1.8-5 4.4-7.6 2.5-2.7 5.2-3.6 2.9-1.1 5.3-1.1 3.9 0 5.7 1.5 1.8 1.6 2.1 4.1.4 2.5-.2 5.5-.6 2.9-1.6 5.7l-12.8 36.3q-1.2 3.5-.9 5.6.5 1.9 2.8 1.9 2.4 0 4.6-2.7 2.1-2.6 4.8-9.6l1.6-4.4h2.3l-3.1 8.8q-1.7 4.6-4.1 7.4-2.4 2.6-5.1 3.7-2.8 1.2-5.6 1.2-5.1 0-6.9-2.4t-1.3-6.2q.4-3.9 2-8.2zm24.9 68.4q5.2-2.7 10.9-7.5 5.9-4.7 12.2-12.8 7-9 12.8-20.1 5.9-11.3 8.2-22.7-2-1.1-4.2-2.6-2.2-1.7-3.6-3.9-1.5-2.3-1.4-5 .3-2.8 2-4.2 1.6-1.5 4.2-1.5 3.2 0 4.6 2.6 1.6 2.4 1.6 7.2 0 6.1-2 13.2-2.1 6.9-5.6 14.1-3.3 7.2-7.5 13.9-4.2 6.6-8.5 12-2 2.4-5.3 6-3.4 3.6-8.1 7.4-4.5 3.8-10.3 6.6-3.6 1.6-6.2 2.2-2.5.8-4.2.8-2.4 0-4.2-1.4-1.8-1.2-1.8-3.6 0-2.6 2-4 1.9-1.4 4.5-1.4 2.7 0 5.1 1.5 2.5 1.4 4.8 3.2M191 87.3l-8 8.8-9.2-55.2q-.6-3.8-1.4-5.2t-2.4-1.4q-1.3 0-3 2.1t-4.1 8.9l-1.5 4.4h-2.3l3-8.7q2.5-7.3 6.2-9.7 3.7-2.6 7.6-2.6 3.7 0 5.7 2.4 2.1 2.3 2.9 8.7zm39.7 2.6q2.9 0 6.6-3.6 3.7-3.7 7.5-9.9 3.9-6.3 7.1-14.2 3.3-7.9 5.2-16.4L255 58.7q-4.5 12.7-9.1 20.5-4.5 7.7-9.2 11.2-4.7 3.4-9.5 3.4-5.6 0-8.5-4.1-2.8-4.1-2.8-10.5 0-5.7 1.9-12.4 2-6.9 5.3-13.6 3.5-6.7 7.9-12.2 4.5-5.6 9.6-8.9 5.3-3.4 10.7-3.4 4.2 0 6.4 4.2 2.3 4.1.9 11.5l-1.3.8q.9-6.4-.8-10.2-1.7-4-5.5-4-3.2 0-6.6 3.1-3.4 3-6.6 8.3-3.2 5.2-5.8 11.6-2.5 6.5-4.1 13.5-1.4 6.8-1.4 13.2 0 5.1 1.1 7.2 1.2 2 3.1 2m30.2-59.5q2.9-.1 5.8-.5 2.9-.3 5.3-1.2l-15 53.1q-.3 1-.8 2.8-.3 1.7 0 3.2.5 1.4 2.6 1.4 2.4 0 4.6-2.6 2.3-2.7 4.6-9.6l1.4-4.5h2.3l-3 8.8q-1.7 4.8-4.1 7.5-2.2 2.7-4.8 3.8-2.5 1.2-4.9 1.2-4.7 0-6.6-3.2-1.5-2.7-.8-6.3.7-3.7 1.7-7.5zM292.7 92V82h11.4V17.6h-11.4v-10H328v10h-11.3V82H328v10zm49 0V28.7H353v10.7q2.4-5.1 7.5-8.6t12-3.5q6.4 0 11 3.4 4.7 3.4 6.9 9.6 3.2-6 8.4-9.5t11.9-3.5q9.2 0 14.4 6.6 5.3 6.7 5.3 18.6V92h-11.9V53q0-4.9-1-8.5-1-3.7-3.4-5.6-2.3-2.1-6.4-2.1-4.6 0-8.2 2.8-3.5 2.7-5.5 7.7t-2 12.1V92h-11.9V53q0-4.9-1-8.5-1-3.7-3.4-5.6-2.2-2.1-6.3-2.1-4.6 0-8.2 2.7t-5.6 7.7q-2 5.1-2 12.2V92zm132.9 1.5q-9.1 0-16.1-4.3-6.9-4.2-10.7-11.6-3.9-7.5-3.9-17.2 0-9.8 3.9-17.3 3.8-7.4 10.7-11.6 7-4.2 16.1-4.2t16 4.2q7 4.2 10.8 11.6 3.9 7.5 3.9 17.3 0 9.7-3.9 17.2-3.8 7.4-10.8 11.6-6.9 4.3-16 4.3m0-9.5q8.3 0 13.1-6.4 4.8-6.3 4.8-17.2 0-11-4.8-17.3-4.8-6.4-13.1-6.4t-13.1 6.4q-4.8 6.3-4.8 17.3 0 10.9 4.8 17.2 4.8 6.4 13.1 6.4m58.6 8q-4.7 0-7.8-2.8-3-2.7-3-7.2V38.2h-9.9v-9.5h9.9v-13l11.9-2.7v15.7h12.3v9.5h-12.3v41.1q0 2 .5 2.6.6.7 2.4.7h9.7V92zm51.8 1.5q-9.1 0-16.1-4.3-6.9-4.2-10.7-11.6-3.9-7.5-3.9-17.2 0-9.8 3.9-17.3 3.8-7.4 10.7-11.6 7-4.2 16.1-4.2t16 4.2q7 4.2 10.8 11.6 3.9 7.5 3.9 17.3 0 9.7-3.9 17.2Q608 85 601 89.2q-6.9 4.3-16 4.3m0-9.5q8.3 0 13.1-6.4 4.8-6.3 4.8-17.2 0-11-4.8-17.3-4.8-6.4-13.1-6.4t-13.1 6.4q-4.8 6.3-4.8 17.3 0 10.9 4.8 17.2Q576.7 84 585 84" class="a"/></g></svg>