<svg xmlns="http://www.w3.org/2000/svg" width="159" height="31" version="1.2"><style>.a{fill:#fff}</style><path d="M19.4 2.1q-.3.9-.8 2.5-.5 1.5-1.1 4h-.6q.1-.4.1-.9.1-.5.1-.9 0-1.2-.5-2.1-.4-1-1.4-1.6t-2.6-.6q-2 0-3.2 1-1.3 1-1.3 3.1 0 1.2.5 2.2.7 1.1 1.6 2 .9 1 1.9 1.9 1.1.9 2 1.9t1.5 2.1.6 2.5q0 1.6-.8 2.8-.7 1.2-1.9 2-1.2.7-2.6 1.1-1.4.3-2.8.3-1.3 0-2.2-.2-.8-.2-1.4-.6-.6-.3-1-.6-.3-.3-.6-.4t-.5-.1q-.4 0-.7.4-.3.5-.6 1.3H.4q.3-.7.6-1.6.4-.9.7-2.4.4-1.4.9-3.7h.6L3 18.9q-.1.6 0 1.2 0 2.2 1.3 3.5 1.2 1.2 3.9 1.2 2 0 3.4-1 1.3-.9 1.3-3 0-1.3-.6-2.4-.5-1-1.3-1.9-.9-1-1.8-1.8-1-.9-1.8-1.8-.9-1-1.4-2.1-.5-1.2-.5-2.7t.6-2.7q.6-1.1 1.6-1.9T10 2.3q1.2-.4 2.5-.4 1.4 0 2.3.3 1 .3 1.9 1 .4.3.6.5.3.1.4.1.5 0 1.1-1.7zm2 15.6q1.8-.6 3.2-1.1 1.5-.7 2.3-1.3 1.2-1 1.9-2.3.6-1.3.6-2.8 0-1-.1-1.2-.1-.3-.4-.3-.8 0-1.7.7t-1.8 2q-.9 1.2-1.7 2.8-.7 1.5-1.2 3.3-.4 1.8-.4 3.5t.6 2.4 1.6.7q1.1 0 2.4-.7t2.5-2.5l.5.3q-.6 1-1.6 2t-2.2 1.6-2.6.6q-1.3 0-2.3-.5-.9-.5-1.4-1.5t-.5-2.5q0-1.3.5-3 .5-1.8 1.4-3.5 1-1.7 2.3-3.1 1.3-1.5 2.9-2.3 1.6-.9 3.4-.9 1 0 1.7.5.7.6.7 1.6 0 1.3-.8 2.4-.7 1.1-2 2-1.2.9-2.6 1.6-1.5.7-2.8 1.2-1.4.6-2.5.9zm17.1-15q.2-.9.8-1.5.7-.6 1.5-.6.9 0 1.3.6.5.6.3 1.5-.1.8-.8 1.4t-1.5.6-1.3-.6q-.4-.6-.3-1.4m-1 8.5q.7-2-.4-2-.8 0-1.3.8-.6.8-1.3 2.5l-.4 1.2h-.6l.8-2.4q.5-1.3 1.2-2 .6-.7 1.4-1 .7-.3 1.4-.3 1 0 1.5.5.5.4.6 1.1.1.6-.1 1.4t-.4 1.5l-3.4 9.7q-.4 1-.3 1.5.2.5.8.5t1.2-.7 1.3-2.6l.4-1.1h.6l-.8 2.3q-.5 1.2-1.1 2-.6.7-1.4 1-.7.3-1.4.3-1.4 0-1.9-.6-.5-.7-.3-1.7.1-1 .5-2.2zm6.6 18.3q1.4-.8 3-2.1 1.5-1.2 3.2-3.4 1.9-2.4 3.4-5.3 1.6-3 2.2-6.1-.5-.3-1.1-.7t-1-1-.3-1.4q0-.7.5-1.1.4-.4 1.1-.4.9 0 1.2.7.5.7.5 1.9 0 1.7-.6 3.6-.5 1.8-1.5 3.7-.9 2-2 3.7-1.1 1.8-2.3 3.2-.5.7-1.4 1.6-.9 1-2.1 2t-2.8 1.8q-.9.4-1.6.6t-1.1.2q-.7 0-1.2-.4-.4-.3-.4-1t.5-1q.5-.4 1.2-.4t1.4.4q.6.4 1.2.9m7.1-5.8L49 26l-2.4-14.7q-.2-1-.4-1.4t-.6-.4-.8.6q-.5.5-1.1 2.4l-.5 1.1h-.6l.8-2.3q.7-1.9 1.7-2.6t2-.7 1.6.7q.5.6.7 2.3zm10.6.7q.8 0 1.8-1t2-2.6q1-1.7 1.9-3.8.8-2.1 1.3-4.4l-.5 3.5q-1.2 3.4-2.4 5.4-1.3 2.1-2.5 3t-2.5.9q-1.5 0-2.3-1.1-.7-1.1-.7-2.8 0-1.5.5-3.3t1.4-3.6 2.1-3.3q1.2-1.4 2.6-2.3t2.8-.9q1.1 0 1.7 1.1t.3 3.1l-.4.2q.2-1.7-.2-2.8-.5-1-1.5-1-.8 0-1.8.8-.8.8-1.7 2.2-.8 1.4-1.5 3.1-.7 1.8-1.1 3.6t-.4 3.5q0 1.4.3 1.9.3.6.8.6m8.1-15.9q.7 0 1.5-.1t1.4-.3l-4 14.1q-.1.3-.2.8-.1.4 0 .8t.7.4 1.2-.7 1.3-2.6l.3-1.1h.6l-.8 2.3q-.4 1.3-1 2-.7.7-1.3 1-.7.3-1.3.3-1.3 0-1.8-.8-.4-.8-.2-1.7l.4-2zM76.3 25v-2.7h3V5.2h-3V2.5h9.4v2.7h-3v17.1h3V25zm12.1 0V8.1h3V11q.6-1.4 2-2.3 1.3-1 3.2-1 1.7 0 2.9.9 1.3.9 1.9 2.6.8-1.6 2.2-2.5 1.4-1 3.2-1 2.4 0 3.8 1.8t1.4 5V25h-3.1V14.6q0-1.3-.3-2.3-.3-.9-.9-1.5-.6-.5-1.7-.5-1.3 0-2.2.7t-1.5 2.1q-.5 1.3-.5 3.2V25h-3.2V14.6q0-1.3-.3-2.3-.2-.9-.8-1.5-.7-.5-1.8-.5-1.2 0-2.1.7-1 .7-1.5 2.1-.6 1.3-.6 3.2V25zm34.5.4q-2.4 0-4.3-1.1-1.8-1.2-2.8-3.1-1.1-2-1.1-4.6t1.1-4.6q1-2 2.8-3.1 1.9-1.2 4.3-1.2t4.3 1.2q1.8 1.1 2.9 3.1 1 2 1 4.6t-1 4.6q-1.1 1.9-2.9 3.1-1.9 1.1-4.3 1.1m0-2.5q2.2 0 3.5-1.7t1.3-4.6q0-3-1.3-4.6-1.3-1.7-3.5-1.7t-3.5 1.7q-1.3 1.6-1.3 4.6 0 2.9 1.3 4.6t3.5 1.7m14.7 2.1q-1.3 0-2.1-.7-.8-.8-.8-2V10.6h-2.6V8.1h2.6V4.7l3.2-.8v4.2h3.3v2.5h-3.3v11q0 .5.1.7.2.2.7.2h2.5V25zm12.9.4q-2.4 0-4.3-1.1-1.8-1.2-2.9-3.1-1-2-1-4.6t1-4.6q1.1-2 2.9-3.1 1.9-1.2 4.3-1.2t4.3 1.2q1.8 1.1 2.9 3.1 1 2 1 4.6t-1 4.6q-1.1 1.9-2.9 3.1-1.9 1.1-4.3 1.1m0-2.5q2.2 0 3.5-1.7t1.3-4.6q0-3-1.3-4.6-1.3-1.7-3.5-1.7T147 12q-1.3 1.6-1.3 4.6 0 2.9 1.3 4.6t3.5 1.7" class="a"/></svg>