<svg xmlns="http://www.w3.org/2000/svg" width="198" height="39" version="1.2"><style>.a{fill:#fff}</style><path d="M24 2.4q-.4 1-1 3-.7 2-1.3 5.2h-.8q.1-.6.1-1.2.1-.6.1-1.1 0-1.5-.6-2.7-.5-1.2-1.8-2-1.2-.7-3.3-.7-2.4 0-4 1.2Q9.8 5.4 9.8 8q0 1.5.8 2.8.7 1.3 1.8 2.5 1.2 1.1 2.5 2.3t2.4 2.4q1.2 1.3 1.9 2.7.8 1.3.8 3 0 2.1-1 3.6-.9 1.5-2.4 2.4-1.4.9-3.2 1.4t-3.6.5q-1.6 0-2.6-.4-1.1-.2-1.8-.7-.8-.4-1.2-.8-.5-.3-.9-.5-.3-.1-.6-.1-.5 0-.9.6-.3.5-.7 1.6H.3l.7-2.1q.4-1.1.9-2.9.5-1.9 1.1-4.6h.8q-.2.8-.3 1.6t-.1 1.6q.2 2.7 1.7 4.3 1.6 1.6 4.9 1.6 2.6 0 4.2-1.2t1.6-3.8q0-1.7-.6-3-.7-1.4-1.8-2.5-1-1.1-2.2-2.2T9 15.8q-1.1-1.2-1.8-2.6-.6-1.4-.6-3.3t.8-3.3q.7-1.5 2-2.5 1.2-1 2.8-1.5t3.2-.5q1.7 0 2.9.4t2.3 1.3q.5.4.8.6.3.1.5.1.6 0 1.3-2.1zm2.5 19.5q2.2-.7 4-1.5 1.9-.7 3-1.6 1.4-1.1 2.2-2.8.9-1.6.9-3.6 0-1.1-.2-1.4-.1-.4-.5-.4-1 0-2.1.9-1.2.9-2.3 2.5-1.1 1.5-2.1 3.4-.9 2-1.5 4.2-.5 2.2-.5 4.4 0 2.1.7 3 .8.9 2 .9 1.5 0 3.1-.9t3.1-3.1l.6.3q-.7 1.3-2 2.6-1.2 1.2-2.8 2-1.5.8-3.2.8-1.6 0-2.8-.7-1.2-.6-1.8-1.9-.7-1.2-.7-3.1 0-1.7.7-3.8.6-2.2 1.8-4.3 1.2-2.2 2.8-4t3.6-2.8q2-1.1 4.3-1.1 1.3 0 2.1.7.9.6.9 1.9 0 1.6-1 3-.9 1.4-2.5 2.5-1.5 1.2-3.3 2-1.8.9-3.5 1.6-1.7.6-3 1zM47.8 3.1q.2-1 1.1-1.8.8-.7 1.8-.7 1.1 0 1.6.7.6.8.4 1.8-.2 1.1-1 1.8-.9.8-1.9.8t-1.6-.8q-.6-.7-.4-1.8m-1.2 10.7q.8-2.5-.6-2.5-.9 0-1.6 1t-1.5 3.1l-.6 1.5h-.8l1.1-2.9q.6-1.7 1.4-2.6.9-.9 1.8-1.2t1.7-.3q1.3 0 1.9.5t.7 1.3q.2.9 0 1.9-.2.9-.6 1.9l-4.2 12.1q-.4 1.1-.3 1.8t.9.7 1.5-.9T49 26l.6-1.5h.7l-1 2.9q-.6 1.6-1.4 2.5t-1.7 1.2q-.9.4-1.8.4-1.7 0-2.3-.8t-.5-2q.2-1.3.7-2.8zm8.3 22.8q1.7-.9 3.6-2.5 2-1.5 4.1-4.2 2.3-3 4.3-6.7 1.9-3.8 2.7-7.6-.7-.4-1.4-.9T67 13.4q-.5-.7-.5-1.6.1-1 .7-1.4.5-.5 1.4-.5 1.1 0 1.5.8.6.8.6 2.4 0 2.1-.7 4.4t-1.9 4.7q-1.1 2.4-2.5 4.7-1.4 2.2-2.8 4-.7.8-1.8 2t-2.7 2.4q-1.5 1.3-3.4 2.2-1.2.6-2.1.8-.8.2-1.4.2-.8 0-1.4-.4t-.6-1.2q0-.9.7-1.4.6-.4 1.5-.4t1.7.5q.8.4 1.6 1m8.8-7.2L61 32.3l-3.1-18.4q-.2-1.2-.4-1.7-.3-.5-.8-.5t-1 .7q-.6.7-1.4 3l-.5 1.5H53l1-2.9q.9-2.5 2.1-3.3t2.5-.8 1.9.8q.7.7 1 2.9zm13.2.8q1 0 2.2-1.2 1.3-1.2 2.5-3.3 1.3-2.1 2.4-4.7t1.7-5.5l-.7 4.3q-1.5 4.3-3 6.9-1.5 2.5-3.1 3.7-1.5 1.1-3.1 1.1-1.9 0-2.9-1.3-.9-1.4-.9-3.5 0-1.9.6-4.2.7-2.3 1.8-4.5 1.2-2.2 2.6-4.1 1.5-1.8 3.2-2.9 1.8-1.2 3.6-1.2 1.4 0 2.1 1.4.8 1.4.3 3.9l-.4.2q.3-2.1-.3-3.4-.5-1.3-1.8-1.3-1.1 0-2.2 1t-2.2 2.8q-1.1 1.7-1.9 3.9-.9 2.1-1.4 4.5-.5 2.2-.5 4.4 0 1.7.4 2.4.4.6 1 .6M87 10.4q1 0 1.9-.2 1-.1 1.8-.4l-5 17.7q-.1.4-.3 1-.1.5 0 1 .2.5.9.5.8 0 1.5-.9.8-.9 1.6-3.2l.4-1.5h.8l-1 3q-.6 1.6-1.4 2.5-.7.9-1.6 1.2-.8.4-1.6.4-1.6 0-2.2-1-.5-.9-.3-2.1.3-1.3.6-2.5zM95 31v-3.3h3.8V6.2H95V2.9h11.8v3.3H103v21.5h3.8V31zm15.1 0V9.9h3.8v3.6q.8-1.7 2.5-2.9t4-1.2q2.1 0 3.7 1.2 1.5 1.1 2.3 3.2 1-2 2.8-3.2 1.7-1.2 3.9-1.2 3.1 0 4.8 2.3 1.8 2.2 1.8 6.2V31h-4V18q0-1.6-.3-2.8t-1.1-1.9-2.2-.7q-1.5 0-2.7.9t-1.8 2.6q-.7 1.7-.7 4.1V31h-4V18q0-1.6-.3-2.8t-1.1-1.9-2.2-.7q-1.5 0-2.7.9t-1.8 2.6q-.7 1.7-.7 4.1V31zm43.1.5q-3 0-5.4-1.4-2.3-1.4-3.6-3.9-1.2-2.5-1.2-5.7 0-3.3 1.2-5.8 1.3-2.4 3.6-3.9 2.4-1.4 5.4-1.4t5.3 1.4q2.3 1.5 3.6 3.9 1.3 2.5 1.3 5.8 0 3.2-1.3 5.7t-3.6 3.9-5.3 1.4m0-3.2q2.8 0 4.4-2.1t1.6-5.7q0-3.7-1.6-5.8t-4.4-2.1-4.4 2.1-1.6 5.8q0 3.6 1.6 5.7t4.4 2.1m18.3 2.7q-1.5 0-2.6-.9-1-.9-1-2.4V13.1h-3.3V9.9h3.3V5.6l4-.9v5.2h4.1v3.2h-4.1v13.7q0 .6.2.9.2.2.8.2h3.2V31zm16.1.5q-3.1 0-5.4-1.4t-3.6-3.9-1.3-5.7q0-3.3 1.3-5.8 1.3-2.4 3.6-3.9 2.3-1.4 5.4-1.4 3 0 5.3 1.4 2.3 1.5 3.6 3.9 1.3 2.5 1.3 5.8 0 3.2-1.3 5.7t-3.6 3.9-5.3 1.4m0-3.2q2.7 0 4.3-2.1t1.6-5.7q0-3.7-1.6-5.8t-4.3-2.1q-2.8 0-4.4 2.1t-1.6 5.8q0 3.6 1.6 5.7t4.4 2.1" class="a"/></svg>